<?xml version="1.0" encoding="UTF-8" standalone="no"?>
<svg width="21px" height="24px" viewBox="0 0 21 24" version="1.1" xmlns="http://www.w3.org/2000/svg" xmlns:xlink="http://www.w3.org/1999/xlink" xmlns:sketch="http://www.bohemiancoding.com/sketch/ns">
    <!-- Generator: Sketch 3.3.2 (12043) - http://www.bohemiancoding.com/sketch -->
    <title>Path</title>
    <desc>Created with Sketch.</desc>
    <defs>
        <path id="path-1" d="M20.4152944,4.56187052 C18.2555643,2.32343799 15.2302528,0.932105235 11.8813295,0.932105235 C5.31945241,0.932105235 0,6.27377216 0,12.8630522 C0,19.4523323 5.31945241,24.7939993 11.8813295,24.7939993 C15.1539406,24.7939993 18.1175202,23.4653529 20.2663106,21.31593 L16.5101317,17.5440649 C15.3427662,18.6070123 13.7934464,19.254631 12.0934961,19.254631 C8.46102843,19.254631 5.51633156,16.2976368 5.51633156,12.6499996 C5.51633156,9.00236243 8.46102843,6.04536824 12.0934961,6.04536824 C13.9777199,6.04536824 15.6768868,6.84099962 16.8759976,8.1159477 L20.4152944,4.56187052 L20.4152944,4.56187052 L20.4152944,4.56187052 Z"></path>
    </defs>
    <g id="Page-2" stroke="none" stroke-width="1" fill="none" fill-rule="evenodd" sketch:type="MSPage">
        <g id="Footer-copyright" sketch:type="MSArtboardGroup" transform="translate(-97.000000, -109.000000)">
            <g id="White-copyright-logo" sketch:type="MSLayerGroup" transform="translate(97.000000, 93.000000)">
                <g id="letters-logo-W" transform="translate(0.238002, 15.219613)">
                    <g id="Path">
                        <use fill="none" sketch:type="MSShapeGroup" xlink:href="#path-1"></use>
                        <use fill="none" xlink:href="#path-1"></use>
                        <use fill="none" xlink:href="#path-1"></use>
                        <use fill="none" xlink:href="#path-1"></use>
                        <use fill="#FFFFFF" fill-rule="evenodd" xlink:href="#path-1"></use>
                    </g>
                </g>
            </g>
        </g>
    </g>
</svg>